<?xml version="1.0" encoding="UTF-8" standalone="no"?>
<svg
   height="409.60mm"
   viewBox="0.0 0.0 333.90 409.60"
   width="333.90mm"
   version="1.1"
   id="svg656"
   sodipodi:docname="SolderFumev4.svg"
   inkscape:version="1.1 (c4e8f9ed74, 2021-05-24)"
   xmlns:inkscape="http://www.inkscape.org/namespaces/inkscape"
   xmlns:sodipodi="http://sodipodi.sourceforge.net/DTD/sodipodi-0.dtd"
   xmlns="http://www.w3.org/2000/svg"
   xmlns:svg="http://www.w3.org/2000/svg"
   xmlns:rdf="http://www.w3.org/1999/02/22-rdf-syntax-ns#"
   xmlns:cc="http://creativecommons.org/ns#"
   xmlns:dc="http://purl.org/dc/elements/1.1/">
  <defs
     id="defs660" />
  <sodipodi:namedview
     id="namedview658"
     pagecolor="#505050"
     bordercolor="#ffffff"
     borderopacity="1"
     inkscape:pageshadow="0"
     inkscape:pageopacity="0"
     inkscape:pagecheckerboard="1"
     inkscape:document-units="mm"
     showgrid="false"
     inkscape:zoom="1.3825878"
     inkscape:cx="399.9746"
     inkscape:cy="295.46044"
     inkscape:current-layer="svg656" />
  <!--
ClosedBox - Fully closed box


This box is more of a building block than a finished item.
Use a vector graphics program (like Inkscape) to add holes or adjust the base
plate.

See BasedBox for variant with a base.


Created with Boxes.py (https://festi.info/boxes.py)
Creation date: 2021-09-19 19:08:46
Command line (remove spaces between dashes): boxes ClosedBox - -FingerJoint_angle=90.0 - -FingerJoint_style=rectangular - -FingerJoint_surroundingspaces=2.0 - -FingerJoint_edge_width=1.0 - -FingerJoint_finger=2.0 - -FingerJoint_play=0.0 - -FingerJoint_space=2.0 - -FingerJoint_width=1.0 - -x=150 - -y=68 - -h=150 - -outside=0 - -thickness=3.0 - -format=svg - -tabs=0.0 - -debug=0 - -labels=0 - -reference=0 - -burn=0.1
Url: http://www.festi.info/ClosedBox?FingerJoint_angle=90.0&FingerJoint_style=rectangular&FingerJoint_surroundingspaces=2.0&FingerJoint_edge_width=1.0&FingerJoint_finger=2.0&FingerJoint_play=0.0&FingerJoint_space=2.0&FingerJoint_width=1.0&x=150&y=68&h=150&outside=0&thickness=3.0&format=svg&tabs=0.0&debug=0&labels=0&reference=0&burn=0.1&render=1
SettingsUrl: http://www.festi.info/ClosedBox?FingerJoint_angle=90.0&FingerJoint_style=rectangular&FingerJoint_surroundingspaces=2.0&FingerJoint_edge_width=1.0&FingerJoint_finger=2.0&FingerJoint_play=0.0&FingerJoint_space=2.0&FingerJoint_width=1.0&x=150&y=68&h=150&outside=0&thickness=3.0&format=svg&tabs=0.0&debug=0&labels=0&reference=0&burn=0.1
-->
  <title
     id="title634">ClosedBox</title>
  <metadata
     id="metadata636">
    <rdf:RDF>
      <cc:Work>
        <dc:title>ClosedBox</dc:title>
        <dc:date>2021-09-19 19:08:46</dc:date>
        <dc:source>http://www.festi.info/ClosedBox?FingerJoint_angle=90.0&amp;FingerJoint_style=rectangular&amp;FingerJoint_surroundingspaces=2.0&amp;FingerJoint_edge_width=1.0&amp;FingerJoint_finger=2.0&amp;FingerJoint_play=0.0&amp;FingerJoint_space=2.0&amp;FingerJoint_width=1.0&amp;x=150&amp;y=68&amp;h=150&amp;outside=0&amp;thickness=3.0&amp;format=svg&amp;tabs=0.0&amp;debug=0&amp;labels=0&amp;reference=0&amp;burn=0.1&amp;render=1</dc:source>
        <dc:description>Fully closed box

This box is more of a building block than a finished item.
Use a vector graphics program (like Inkscape) to add holes or adjust the base
plate.

See BasedBox for variant with a base.

Created with Boxes.py (https://festi.info/boxes.py)
Command line: boxes ClosedBox --FingerJoint_angle=90.0 --FingerJoint_style=rectangular --FingerJoint_surroundingspaces=2.0 --FingerJoint_edge_width=1.0 --FingerJoint_finger=2.0 --FingerJoint_play=0.0 --FingerJoint_space=2.0 --FingerJoint_width=1.0 --x=150 --y=68 --h=150 --outside=0 --thickness=3.0 --format=svg --tabs=0.0 --debug=0 --labels=0 --reference=0 --burn=0.1
Url: http://www.festi.info/ClosedBox?FingerJoint_angle=90.0&amp;FingerJoint_style=rectangular&amp;FingerJoint_surroundingspaces=2.0&amp;FingerJoint_edge_width=1.0&amp;FingerJoint_finger=2.0&amp;FingerJoint_play=0.0&amp;FingerJoint_space=2.0&amp;FingerJoint_width=1.0&amp;x=150&amp;y=68&amp;h=150&amp;outside=0&amp;thickness=3.0&amp;format=svg&amp;tabs=0.0&amp;debug=0&amp;labels=0&amp;reference=0&amp;burn=0.1&amp;render=1
SettingsUrl: http://www.festi.info/ClosedBox?FingerJoint_angle=90.0&amp;FingerJoint_style=rectangular&amp;FingerJoint_surroundingspaces=2.0&amp;FingerJoint_edge_width=1.0&amp;FingerJoint_finger=2.0&amp;FingerJoint_play=0.0&amp;FingerJoint_space=2.0&amp;FingerJoint_width=1.0&amp;x=150&amp;y=68&amp;h=150&amp;outside=0&amp;thickness=3.0&amp;format=svg&amp;tabs=0.0&amp;debug=0&amp;labels=0&amp;reference=0&amp;burn=0.1
</dc:description>
      </cc:Work>
    </rdf:RDF>
  </metadata>
  <g
     id="p-0"
     style="fill:none;stroke-linecap:round;stroke-linejoin:round;">
    <path
       d="M 13.100 399.600 H 19.100 C 19.155 399.600 19.200 399.555 19.200 399.500 V 396.600 C 19.200 396.500 19.100 396.600 19.200 396.600 H 25.000 C 25.100 396.600 25.000 396.500 25.000 396.600 V 399.500 C 25.000 399.555 25.045 399.600 25.100 399.600 H 31.100 C 31.155 399.600 31.200 399.555 31.200 399.500 V 396.600 C 31.200 396.500 31.100 396.600 31.200 396.600 H 37.000 C 37.100 396.600 37.000 396.500 37.000 396.600 V 399.500 C 37.000 399.555 37.045 399.600 37.100 399.600 H 43.100 C 43.155 399.600 43.200 399.555 43.200 399.500 V 396.600 C 43.200 396.500 43.100 396.600 43.200 396.600 H 49.000 C 49.100 396.600 49.000 396.500 49.000 396.600 V 399.500 C 49.000 399.555 49.045 399.600 49.100 399.600 H 55.100 C 55.155 399.600 55.200 399.555 55.200 399.500 V 396.600 C 55.200 396.500 55.100 396.600 55.200 396.600 H 61.000 C 61.100 396.600 61.000 396.500 61.000 396.600 V 399.500 C 61.000 399.555 61.045 399.600 61.100 399.600 H 67.100 C 67.155 399.600 67.200 399.555 67.200 399.500 V 396.600 C 67.200 396.500 67.100 396.600 67.200 396.600 H 73.000 C 73.100 396.600 73.000 396.500 73.000 396.600 V 399.500 C 73.000 399.555 73.045 399.600 73.100 399.600 H 79.100 C 79.155 399.600 79.200 399.555 79.200 399.500 V 396.600 C 79.200 396.500 79.100 396.600 79.200 396.600 H 85.000 C 85.100 396.600 85.000 396.500 85.000 396.600 V 399.500 C 85.000 399.555 85.045 399.600 85.100 399.600 H 91.100 C 91.155 399.600 91.200 399.555 91.200 399.500 V 396.600 C 91.200 396.500 91.100 396.600 91.200 396.600 H 97.000 C 97.100 396.600 97.000 396.500 97.000 396.600 V 399.500 C 97.000 399.555 97.045 399.600 97.100 399.600 H 103.100 C 103.155 399.600 103.200 399.555 103.200 399.500 V 396.600 C 103.200 396.500 103.100 396.600 103.200 396.600 H 109.000 C 109.100 396.600 109.000 396.500 109.000 396.600 V 399.500 C 109.000 399.555 109.045 399.600 109.100 399.600 H 115.100 C 115.155 399.600 115.200 399.555 115.200 399.500 V 396.600 C 115.200 396.500 115.100 396.600 115.200 396.600 H 121.000 C 121.100 396.600 121.000 396.500 121.000 396.600 V 399.500 C 121.000 399.555 121.045 399.600 121.100 399.600 H 127.100 C 127.155 399.600 127.200 399.555 127.200 399.500 V 396.600 C 127.200 396.500 127.100 396.600 127.200 396.600 H 133.000 C 133.100 396.600 133.000 396.500 133.000 396.600 V 399.500 C 133.000 399.555 133.045 399.600 133.100 399.600 H 139.100 C 139.155 399.600 139.200 399.555 139.200 399.500 V 396.600 C 139.200 396.500 139.100 396.600 139.200 396.600 H 145.000 C 145.100 396.600 145.000 396.500 145.000 396.600 V 399.500 C 145.000 399.555 145.045 399.600 145.100 399.600 H 151.100 C 151.155 399.600 151.200 399.555 151.200 399.500 V 396.600 C 151.200 396.500 151.100 396.600 151.200 396.600 H 157.000 C 157.100 396.600 157.000 396.500 157.000 396.600 V 399.500 C 157.000 399.555 157.045 399.600 157.100 399.600 H 163.100 H 166.100 C 166.155 399.600 166.200 399.555 166.200 399.500 V 396.500 V 390.500 C 166.200 390.445 166.155 390.400 166.100 390.400 H 163.200 C 163.100 390.400 163.200 390.500 163.200 390.400 V 384.600 C 163.200 384.500 163.100 384.600 163.200 384.600 H 166.100 C 166.155 384.600 166.200 384.555 166.200 384.500 V 378.500 C 166.200 378.445 166.155 378.400 166.100 378.400 H 163.200 C 163.100 378.400 163.200 378.500 163.200 378.400 V 372.600 C 163.200 372.500 163.100 372.600 163.200 372.600 H 166.100 C 166.155 372.600 166.200 372.555 166.200 372.500 V 366.500 C 166.200 366.445 166.155 366.400 166.100 366.400 H 163.200 C 163.100 366.400 163.200 366.500 163.200 366.400 V 360.600 C 163.200 360.500 163.100 360.600 163.200 360.600 H 166.100 C 166.155 360.600 166.200 360.555 166.200 360.500 V 354.500 C 166.200 354.445 166.155 354.400 166.100 354.400 H 163.200 C 163.100 354.400 163.200 354.500 163.200 354.400 V 348.600 C 163.200 348.500 163.100 348.600 163.200 348.600 H 166.100 C 166.155 348.600 166.200 348.555 166.200 348.500 V 342.500 C 166.200 342.445 166.155 342.400 166.100 342.400 H 163.200 C 163.100 342.400 163.200 342.500 163.200 342.400 V 336.600 C 163.200 336.500 163.100 336.600 163.200 336.600 H 166.100 C 166.155 336.600 166.200 336.555 166.200 336.500 V 330.500 C 166.200 330.445 166.155 330.400 166.100 330.400 H 163.200 C 163.100 330.400 163.200 330.500 163.200 330.400 V 324.600 C 163.200 324.500 163.100 324.600 163.200 324.600 H 166.100 C 166.155 324.600 166.200 324.555 166.200 324.500 V 318.500 C 166.200 318.445 166.155 318.400 166.100 318.400 H 163.200 C 163.100 318.400 163.200 318.500 163.200 318.400 V 312.600 C 163.200 312.500 163.100 312.600 163.200 312.600 H 166.100 C 166.155 312.600 166.200 312.555 166.200 312.500 V 306.500 C 166.200 306.445 166.155 306.400 166.100 306.400 H 163.200 C 163.100 306.400 163.200 306.500 163.200 306.400 V 300.600 C 163.200 300.500 163.100 300.600 163.200 300.600 H 166.100 C 166.155 300.600 166.200 300.555 166.200 300.500 V 294.500 C 166.200 294.445 166.155 294.400 166.100 294.400 H 163.200 C 163.100 294.400 163.200 294.500 163.200 294.400 V 288.600 C 163.200 288.500 163.100 288.600 163.200 288.600 H 166.100 C 166.155 288.600 166.200 288.555 166.200 288.500 V 282.500 C 166.200 282.445 166.155 282.400 166.100 282.400 H 163.200 C 163.100 282.400 163.200 282.500 163.200 282.400 V 276.600 C 163.200 276.500 163.100 276.600 163.200 276.600 H 166.100 C 166.155 276.600 166.200 276.555 166.200 276.500 V 270.500 C 166.200 270.445 166.155 270.400 166.100 270.400 H 163.200 C 163.100 270.400 163.200 270.500 163.200 270.400 V 264.600 C 163.200 264.500 163.100 264.600 163.200 264.600 H 166.100 C 166.155 264.600 166.200 264.555 166.200 264.500 V 258.500 C 166.200 258.445 166.155 258.400 166.100 258.400 H 163.200 C 163.100 258.400 163.200 258.500 163.200 258.400 V 252.600 C 163.200 252.500 163.100 252.600 163.200 252.600 H 166.100 C 166.155 252.600 166.200 252.555 166.200 252.500 V 246.500 V 243.500 C 166.200 243.445 166.155 243.400 166.100 243.400 H 163.100 H 157.100 C 157.045 243.400 157.000 243.445 157.000 243.500 V 246.400 C 157.000 246.500 157.100 246.400 157.000 246.400 H 151.200 C 151.100 246.400 151.200 246.500 151.200 246.400 V 243.500 C 151.200 243.445 151.155 243.400 151.100 243.400 H 145.100 C 145.045 243.400 145.000 243.445 145.000 243.500 V 246.400 C 145.000 246.500 145.100 246.400 145.000 246.400 H 139.200 C 139.100 246.400 139.200 246.500 139.200 246.400 V 243.500 C 139.200 243.445 139.155 243.400 139.100 243.400 H 133.100 C 133.045 243.400 133.000 243.445 133.000 243.500 V 246.400 C 133.000 246.500 133.100 246.400 133.000 246.400 H 127.200 C 127.100 246.400 127.200 246.500 127.200 246.400 V 243.500 C 127.200 243.445 127.155 243.400 127.100 243.400 H 121.100 C 121.045 243.400 121.000 243.445 121.000 243.500 V 246.400 C 121.000 246.500 121.100 246.400 121.000 246.400 H 115.200 C 115.100 246.400 115.200 246.500 115.200 246.400 V 243.500 C 115.200 243.445 115.155 243.400 115.100 243.400 H 109.100 C 109.045 243.400 109.000 243.445 109.000 243.500 V 246.400 C 109.000 246.500 109.100 246.400 109.000 246.400 H 103.200 C 103.100 246.400 103.200 246.500 103.200 246.400 V 243.500 C 103.200 243.445 103.155 243.400 103.100 243.400 H 97.100 C 97.045 243.400 97.000 243.445 97.000 243.500 V 246.400 C 97.000 246.500 97.100 246.400 97.000 246.400 H 91.200 C 91.100 246.400 91.200 246.500 91.200 246.400 V 243.500 C 91.200 243.445 91.155 243.400 91.100 243.400 H 85.100 C 85.045 243.400 85.000 243.445 85.000 243.500 V 246.400 C 85.000 246.500 85.100 246.400 85.000 246.400 H 79.200 C 79.100 246.400 79.200 246.500 79.200 246.400 V 243.500 C 79.200 243.445 79.155 243.400 79.100 243.400 H 73.100 C 73.045 243.400 73.000 243.445 73.000 243.500 V 246.400 C 73.000 246.500 73.100 246.400 73.000 246.400 H 67.200 C 67.100 246.400 67.200 246.500 67.200 246.400 V 243.500 C 67.200 243.445 67.155 243.400 67.100 243.400 H 61.100 C 61.045 243.400 61.000 243.445 61.000 243.500 V 246.400 C 61.000 246.500 61.100 246.400 61.000 246.400 H 55.200 C 55.100 246.400 55.200 246.500 55.200 246.400 V 243.500 C 55.200 243.445 55.155 243.400 55.100 243.400 H 49.100 C 49.045 243.400 49.000 243.445 49.000 243.500 V 246.400 C 49.000 246.500 49.100 246.400 49.000 246.400 H 43.200 C 43.100 246.400 43.200 246.500 43.200 246.400 V 243.500 C 43.200 243.445 43.155 243.400 43.100 243.400 H 37.100 C 37.045 243.400 37.000 243.445 37.000 243.500 V 246.400 C 37.000 246.500 37.100 246.400 37.000 246.400 H 31.200 C 31.100 246.400 31.200 246.500 31.200 246.400 V 243.500 C 31.200 243.445 31.155 243.400 31.100 243.400 H 25.100 C 25.045 243.400 25.000 243.445 25.000 243.500 V 246.400 C 25.000 246.500 25.100 246.400 25.000 246.400 H 19.200 C 19.100 246.400 19.200 246.500 19.200 246.400 V 243.500 C 19.200 243.445 19.155 243.400 19.100 243.400 H 13.100 H 10.100 C 10.045 243.400 10.000 243.445 10.000 243.500 V 246.500 V 252.500 C 10.000 252.555 10.045 252.600 10.100 252.600 H 13.000 C 13.100 252.600 13.000 252.500 13.000 252.600 V 258.400 C 13.000 258.500 13.100 258.400 13.000 258.400 H 10.100 C 10.045 258.400 10.000 258.445 10.000 258.500 V 264.500 C 10.000 264.555 10.045 264.600 10.100 264.600 H 13.000 C 13.100 264.600 13.000 264.500 13.000 264.600 V 270.400 C 13.000 270.500 13.100 270.400 13.000 270.400 H 10.100 C 10.045 270.400 10.000 270.445 10.000 270.500 V 276.500 C 10.000 276.555 10.045 276.600 10.100 276.600 H 13.000 C 13.100 276.600 13.000 276.500 13.000 276.600 V 282.400 C 13.000 282.500 13.100 282.400 13.000 282.400 H 10.100 C 10.045 282.400 10.000 282.445 10.000 282.500 V 288.500 C 10.000 288.555 10.045 288.600 10.100 288.600 H 13.000 C 13.100 288.600 13.000 288.500 13.000 288.600 V 294.400 C 13.000 294.500 13.100 294.400 13.000 294.400 H 10.100 C 10.045 294.400 10.000 294.445 10.000 294.500 V 300.500 C 10.000 300.555 10.045 300.600 10.100 300.600 H 13.000 C 13.100 300.600 13.000 300.500 13.000 300.600 V 306.400 C 13.000 306.500 13.100 306.400 13.000 306.400 H 10.100 C 10.045 306.400 10.000 306.445 10.000 306.500 V 312.500 C 10.000 312.555 10.045 312.600 10.100 312.600 H 13.000 C 13.100 312.600 13.000 312.500 13.000 312.600 V 318.400 C 13.000 318.500 13.100 318.400 13.000 318.400 H 10.100 C 10.045 318.400 10.000 318.445 10.000 318.500 V 324.500 C 10.000 324.555 10.045 324.600 10.100 324.600 H 13.000 C 13.100 324.600 13.000 324.500 13.000 324.600 V 330.400 C 13.000 330.500 13.100 330.400 13.000 330.400 H 10.100 C 10.045 330.400 10.000 330.445 10.000 330.500 V 336.500 C 10.000 336.555 10.045 336.600 10.100 336.600 H 13.000 C 13.100 336.600 13.000 336.500 13.000 336.600 V 342.400 C 13.000 342.500 13.100 342.400 13.000 342.400 H 10.100 C 10.045 342.400 10.000 342.445 10.000 342.500 V 348.500 C 10.000 348.555 10.045 348.600 10.100 348.600 H 13.000 C 13.100 348.600 13.000 348.500 13.000 348.600 V 354.400 C 13.000 354.500 13.100 354.400 13.000 354.400 H 10.100 C 10.045 354.400 10.000 354.445 10.000 354.500 V 360.500 C 10.000 360.555 10.045 360.600 10.100 360.600 H 13.000 C 13.100 360.600 13.000 360.500 13.000 360.600 V 366.400 C 13.000 366.500 13.100 366.400 13.000 366.400 H 10.100 C 10.045 366.400 10.000 366.445 10.000 366.500 V 372.500 C 10.000 372.555 10.045 372.600 10.100 372.600 H 13.000 C 13.100 372.600 13.000 372.500 13.000 372.600 V 378.400 C 13.000 378.500 13.100 378.400 13.000 378.400 H 10.100 C 10.045 378.400 10.000 378.445 10.000 378.500 V 384.500 C 10.000 384.555 10.045 384.600 10.100 384.600 H 13.000 C 13.100 384.600 13.000 384.500 13.000 384.600 V 390.400 C 13.000 390.500 13.100 390.400 13.000 390.400 H 10.100 C 10.045 390.400 10.000 390.445 10.000 390.500 V 396.500 V 399.500 C 10.000 399.555 10.045 399.600 10.100 399.600 H 13.100 Z"
       stroke="rgb(0,0,0)"
       stroke-width="0.20"
       id="path638" />
  </g>
  <g
     id="p-1"
     style="fill:none;stroke-linecap:round;stroke-linejoin:round;">
    <path
       d="M 170.800 399.600 H 177.800 C 177.855 399.600 177.900 399.555 177.900 399.500 V 396.600 C 177.900 396.500 177.800 396.600 177.900 396.600 H 183.700 C 183.800 396.600 183.700 396.500 183.700 396.600 V 399.500 C 183.700 399.555 183.745 399.600 183.800 399.600 H 189.800 C 189.855 399.600 189.900 399.555 189.900 399.500 V 396.600 C 189.900 396.500 189.800 396.600 189.900 396.600 H 195.700 C 195.800 396.600 195.700 396.500 195.700 396.600 V 399.500 C 195.700 399.555 195.745 399.600 195.800 399.600 H 201.800 C 201.855 399.600 201.900 399.555 201.900 399.500 V 396.600 C 201.900 396.500 201.800 396.600 201.900 396.600 H 207.700 C 207.800 396.600 207.700 396.500 207.700 396.600 V 399.500 C 207.700 399.555 207.745 399.600 207.800 399.600 H 213.800 C 213.855 399.600 213.900 399.555 213.900 399.500 V 396.600 C 213.900 396.500 213.800 396.600 213.900 396.600 H 219.700 C 219.800 396.600 219.700 396.500 219.700 396.600 V 399.500 C 219.700 399.555 219.745 399.600 219.800 399.600 H 225.800 C 225.855 399.600 225.900 399.555 225.900 399.500 V 396.600 C 225.900 396.500 225.800 396.600 225.900 396.600 H 231.700 C 231.800 396.600 231.700 396.500 231.700 396.600 V 399.500 C 231.700 399.555 231.745 399.600 231.800 399.600 H 238.800 C 238.855 399.600 238.900 399.555 238.900 399.500 V 396.500 V 390.600 C 238.900 390.500 238.800 390.600 238.900 390.600 H 241.800 C 241.855 390.600 241.900 390.555 241.900 390.500 V 384.500 C 241.900 384.445 241.855 384.400 241.800 384.400 H 238.900 C 238.800 384.400 238.900 384.500 238.900 384.400 V 378.600 C 238.900 378.500 238.800 378.600 238.900 378.600 H 241.800 C 241.855 378.600 241.900 378.555 241.900 378.500 V 372.500 C 241.900 372.445 241.855 372.400 241.800 372.400 H 238.900 C 238.800 372.400 238.900 372.500 238.900 372.400 V 366.600 C 238.900 366.500 238.800 366.600 238.900 366.600 H 241.800 C 241.855 366.600 241.900 366.555 241.900 366.500 V 360.500 C 241.900 360.445 241.855 360.400 241.800 360.400 H 238.900 C 238.800 360.400 238.900 360.500 238.900 360.400 V 354.600 C 238.900 354.500 238.800 354.600 238.900 354.600 H 241.800 C 241.855 354.600 241.900 354.555 241.900 354.500 V 348.500 C 241.900 348.445 241.855 348.400 241.800 348.400 H 238.900 C 238.800 348.400 238.900 348.500 238.900 348.400 V 342.600 C 238.900 342.500 238.800 342.600 238.900 342.600 H 241.800 C 241.855 342.600 241.900 342.555 241.900 342.500 V 336.500 C 241.900 336.445 241.855 336.400 241.800 336.400 H 238.900 C 238.800 336.400 238.900 336.500 238.900 336.400 V 330.600 C 238.900 330.500 238.800 330.600 238.900 330.600 H 241.800 C 241.855 330.600 241.900 330.555 241.900 330.500 V 324.500 C 241.900 324.445 241.855 324.400 241.800 324.400 H 238.900 C 238.800 324.400 238.900 324.500 238.900 324.400 V 318.600 C 238.900 318.500 238.800 318.600 238.900 318.600 H 241.800 C 241.855 318.600 241.900 318.555 241.900 318.500 V 312.500 C 241.900 312.445 241.855 312.400 241.800 312.400 H 238.900 C 238.800 312.400 238.900 312.500 238.900 312.400 V 306.600 C 238.900 306.500 238.800 306.600 238.900 306.600 H 241.800 C 241.855 306.600 241.900 306.555 241.900 306.500 V 300.500 C 241.900 300.445 241.855 300.400 241.800 300.400 H 238.900 C 238.800 300.400 238.900 300.500 238.900 300.400 V 294.600 C 238.900 294.500 238.800 294.600 238.900 294.600 H 241.800 C 241.855 294.600 241.900 294.555 241.900 294.500 V 288.500 C 241.900 288.445 241.855 288.400 241.800 288.400 H 238.900 C 238.800 288.400 238.900 288.500 238.900 288.400 V 282.600 C 238.900 282.500 238.800 282.600 238.900 282.600 H 241.800 C 241.855 282.600 241.900 282.555 241.900 282.500 V 276.500 C 241.900 276.445 241.855 276.400 241.800 276.400 H 238.900 C 238.800 276.400 238.900 276.500 238.900 276.400 V 270.600 C 238.900 270.500 238.800 270.600 238.900 270.600 H 241.800 C 241.855 270.600 241.900 270.555 241.900 270.500 V 264.500 C 241.900 264.445 241.855 264.400 241.800 264.400 H 238.900 C 238.800 264.400 238.900 264.500 238.900 264.400 V 258.600 C 238.900 258.500 238.800 258.600 238.900 258.600 H 241.800 C 241.855 258.600 241.900 258.555 241.900 258.500 V 252.500 C 241.900 252.445 241.855 252.400 241.800 252.400 H 238.900 C 238.800 252.400 238.900 252.500 238.900 252.400 V 246.500 V 243.500 C 238.900 243.445 238.855 243.400 238.800 243.400 H 231.800 C 231.745 243.400 231.700 243.445 231.700 243.500 V 246.400 C 231.700 246.500 231.800 246.400 231.700 246.400 H 225.900 C 225.800 246.400 225.900 246.500 225.900 246.400 V 243.500 C 225.900 243.445 225.855 243.400 225.800 243.400 H 219.800 C 219.745 243.400 219.700 243.445 219.700 243.500 V 246.400 C 219.700 246.500 219.800 246.400 219.700 246.400 H 213.900 C 213.800 246.400 213.900 246.500 213.900 246.400 V 243.500 C 213.900 243.445 213.855 243.400 213.800 243.400 H 207.800 C 207.745 243.400 207.700 243.445 207.700 243.500 V 246.400 C 207.700 246.500 207.800 246.400 207.700 246.400 H 201.900 C 201.800 246.400 201.900 246.500 201.900 246.400 V 243.500 C 201.900 243.445 201.855 243.400 201.800 243.400 H 195.800 C 195.745 243.400 195.700 243.445 195.700 243.500 V 246.400 C 195.700 246.500 195.800 246.400 195.700 246.400 H 189.900 C 189.800 246.400 189.900 246.500 189.900 246.400 V 243.500 C 189.900 243.445 189.855 243.400 189.800 243.400 H 183.800 C 183.745 243.400 183.700 243.445 183.700 243.500 V 246.400 C 183.700 246.500 183.800 246.400 183.700 246.400 H 177.900 C 177.800 246.400 177.900 246.500 177.900 246.400 V 243.500 C 177.900 243.445 177.855 243.400 177.800 243.400 H 170.800 C 170.745 243.400 170.700 243.445 170.700 243.500 V 246.500 V 252.400 C 170.700 252.500 170.800 252.400 170.700 252.400 H 167.800 C 167.745 252.400 167.700 252.445 167.700 252.500 V 258.500 C 167.700 258.555 167.745 258.600 167.800 258.600 H 170.700 C 170.800 258.600 170.700 258.500 170.700 258.600 V 264.400 C 170.700 264.500 170.800 264.400 170.700 264.400 H 167.800 C 167.745 264.400 167.700 264.445 167.700 264.500 V 270.500 C 167.700 270.555 167.745 270.600 167.800 270.600 H 170.700 C 170.800 270.600 170.700 270.500 170.700 270.600 V 276.400 C 170.700 276.500 170.800 276.400 170.700 276.400 H 167.800 C 167.745 276.400 167.700 276.445 167.700 276.500 V 282.500 C 167.700 282.555 167.745 282.600 167.800 282.600 H 170.700 C 170.800 282.600 170.700 282.500 170.700 282.600 V 288.400 C 170.700 288.500 170.800 288.400 170.700 288.400 H 167.800 C 167.745 288.400 167.700 288.445 167.700 288.500 V 294.500 C 167.700 294.555 167.745 294.600 167.800 294.600 H 170.700 C 170.800 294.600 170.700 294.500 170.700 294.600 V 300.400 C 170.700 300.500 170.800 300.400 170.700 300.400 H 167.800 C 167.745 300.400 167.700 300.445 167.700 300.500 V 306.500 C 167.700 306.555 167.745 306.600 167.800 306.600 H 170.700 C 170.800 306.600 170.700 306.500 170.700 306.600 V 312.400 C 170.700 312.500 170.800 312.400 170.700 312.400 H 167.800 C 167.745 312.400 167.700 312.445 167.700 312.500 V 318.500 C 167.700 318.555 167.745 318.600 167.800 318.600 H 170.700 C 170.800 318.600 170.700 318.500 170.700 318.600 V 324.400 C 170.700 324.500 170.800 324.400 170.700 324.400 H 167.800 C 167.745 324.400 167.700 324.445 167.700 324.500 V 330.500 C 167.700 330.555 167.745 330.600 167.800 330.600 H 170.700 C 170.800 330.600 170.700 330.500 170.700 330.600 V 336.400 C 170.700 336.500 170.800 336.400 170.700 336.400 H 167.800 C 167.745 336.400 167.700 336.445 167.700 336.500 V 342.500 C 167.700 342.555 167.745 342.600 167.800 342.600 H 170.700 C 170.800 342.600 170.700 342.500 170.700 342.600 V 348.400 C 170.700 348.500 170.800 348.400 170.700 348.400 H 167.800 C 167.745 348.400 167.700 348.445 167.700 348.500 V 354.500 C 167.700 354.555 167.745 354.600 167.800 354.600 H 170.700 C 170.800 354.600 170.700 354.500 170.700 354.600 V 360.400 C 170.700 360.500 170.800 360.400 170.700 360.400 H 167.800 C 167.745 360.400 167.700 360.445 167.700 360.500 V 366.500 C 167.700 366.555 167.745 366.600 167.800 366.600 H 170.700 C 170.800 366.600 170.700 366.500 170.700 366.600 V 372.400 C 170.700 372.500 170.800 372.400 170.700 372.400 H 167.800 C 167.745 372.400 167.700 372.445 167.700 372.500 V 378.500 C 167.700 378.555 167.745 378.600 167.800 378.600 H 170.700 C 170.800 378.600 170.700 378.500 170.700 378.600 V 384.400 C 170.700 384.500 170.800 384.400 170.700 384.400 H 167.800 C 167.745 384.400 167.700 384.445 167.700 384.500 V 390.500 C 167.700 390.555 167.745 390.600 167.800 390.600 H 170.700 C 170.800 390.600 170.700 390.500 170.700 390.600 V 396.500 V 399.500 C 170.700 399.555 170.745 399.600 170.800 399.600 Z"
       stroke="rgb(0,0,0)"
       stroke-width="0.20"
       id="path641" />
  </g>
  <g
     id="p-2"
     style="fill:none;stroke-linecap:round;stroke-linejoin:round;">
    <path
       d="M 170.800 241.900 H 177.800 C 177.855 241.900 177.900 241.855 177.900 241.800 V 238.900 C 177.900 238.800 177.800 238.900 177.900 238.900 H 183.700 C 183.800 238.900 183.700 238.800 183.700 238.900 V 241.800 C 183.700 241.855 183.745 241.900 183.800 241.900 H 189.800 C 189.855 241.900 189.900 241.855 189.900 241.800 V 238.900 C 189.900 238.800 189.800 238.900 189.900 238.900 H 195.700 C 195.800 238.900 195.700 238.800 195.700 238.900 V 241.800 C 195.700 241.855 195.745 241.900 195.800 241.900 H 201.800 C 201.855 241.900 201.900 241.855 201.900 241.800 V 238.900 C 201.900 238.800 201.800 238.900 201.900 238.900 H 207.700 C 207.800 238.900 207.700 238.800 207.700 238.900 V 241.800 C 207.700 241.855 207.745 241.900 207.800 241.900 H 213.800 C 213.855 241.900 213.900 241.855 213.900 241.800 V 238.900 C 213.900 238.800 213.800 238.900 213.900 238.900 H 219.700 C 219.800 238.900 219.700 238.800 219.700 238.900 V 241.800 C 219.700 241.855 219.745 241.900 219.800 241.900 H 225.800 C 225.855 241.900 225.900 241.855 225.900 241.800 V 238.900 C 225.900 238.800 225.800 238.900 225.900 238.900 H 231.700 C 231.800 238.900 231.700 238.800 231.700 238.900 V 241.800 C 231.700 241.855 231.745 241.900 231.800 241.900 H 238.800 C 238.855 241.900 238.900 241.855 238.900 241.800 V 238.800 V 232.900 C 238.900 232.800 238.800 232.900 238.900 232.900 H 241.800 C 241.855 232.900 241.900 232.855 241.900 232.800 V 226.800 C 241.900 226.745 241.855 226.700 241.800 226.700 H 238.900 C 238.800 226.700 238.900 226.800 238.900 226.700 V 220.900 C 238.900 220.800 238.800 220.900 238.900 220.900 H 241.800 C 241.855 220.900 241.900 220.855 241.900 220.800 V 214.800 C 241.900 214.745 241.855 214.700 241.800 214.700 H 238.900 C 238.800 214.700 238.900 214.800 238.900 214.700 V 208.900 C 238.900 208.800 238.800 208.900 238.900 208.900 H 241.800 C 241.855 208.900 241.900 208.855 241.900 208.800 V 202.800 C 241.900 202.745 241.855 202.700 241.800 202.700 H 238.900 C 238.800 202.700 238.900 202.800 238.900 202.700 V 196.900 C 238.900 196.800 238.800 196.900 238.900 196.900 H 241.800 C 241.855 196.900 241.900 196.855 241.900 196.800 V 190.800 C 241.900 190.745 241.855 190.700 241.800 190.700 H 238.900 C 238.800 190.700 238.900 190.800 238.900 190.700 V 184.900 C 238.900 184.800 238.800 184.900 238.900 184.900 H 241.800 C 241.855 184.900 241.900 184.855 241.900 184.800 V 178.800 C 241.900 178.745 241.855 178.700 241.800 178.700 H 238.900 C 238.800 178.700 238.900 178.800 238.900 178.700 V 172.900 C 238.900 172.800 238.800 172.900 238.900 172.900 H 241.800 C 241.855 172.900 241.900 172.855 241.900 172.800 V 166.800 C 241.900 166.745 241.855 166.700 241.800 166.700 H 238.900 C 238.800 166.700 238.900 166.800 238.900 166.700 V 160.900 C 238.900 160.800 238.800 160.900 238.900 160.900 H 241.800 C 241.855 160.900 241.900 160.855 241.900 160.800 V 154.800 C 241.900 154.745 241.855 154.700 241.800 154.700 H 238.900 C 238.800 154.700 238.900 154.800 238.900 154.700 V 148.900 C 238.900 148.800 238.800 148.900 238.900 148.900 H 241.800 C 241.855 148.900 241.900 148.855 241.900 148.800 V 142.800 C 241.900 142.745 241.855 142.700 241.800 142.700 H 238.900 C 238.800 142.700 238.900 142.800 238.900 142.700 V 136.900 C 238.900 136.800 238.800 136.900 238.900 136.900 H 241.800 C 241.855 136.900 241.900 136.855 241.900 136.800 V 130.800 C 241.900 130.745 241.855 130.700 241.800 130.700 H 238.900 C 238.800 130.700 238.900 130.800 238.900 130.700 V 124.900 C 238.900 124.800 238.800 124.900 238.900 124.900 H 241.800 C 241.855 124.900 241.900 124.855 241.900 124.800 V 118.800 C 241.900 118.745 241.855 118.700 241.800 118.700 H 238.900 C 238.800 118.700 238.900 118.800 238.900 118.700 V 112.900 C 238.900 112.800 238.800 112.900 238.900 112.900 H 241.800 C 241.855 112.900 241.900 112.855 241.900 112.800 V 106.800 C 241.900 106.745 241.855 106.700 241.800 106.700 H 238.900 C 238.800 106.700 238.900 106.800 238.900 106.700 V 100.900 C 238.900 100.800 238.800 100.900 238.900 100.900 H 241.800 C 241.855 100.900 241.900 100.855 241.900 100.800 V 94.800 C 241.900 94.745 241.855 94.700 241.800 94.700 H 238.900 C 238.800 94.700 238.900 94.800 238.900 94.700 V 88.800 V 85.800 C 238.900 85.745 238.855 85.700 238.800 85.700 H 231.800 C 231.745 85.700 231.700 85.745 231.700 85.800 V 88.700 C 231.700 88.800 231.800 88.700 231.700 88.700 H 225.900 C 225.800 88.700 225.900 88.800 225.900 88.700 V 85.800 C 225.900 85.745 225.855 85.700 225.800 85.700 H 219.800 C 219.745 85.700 219.700 85.745 219.700 85.800 V 88.700 C 219.700 88.800 219.800 88.700 219.700 88.700 H 213.900 C 213.800 88.700 213.900 88.800 213.900 88.700 V 85.800 C 213.900 85.745 213.855 85.700 213.800 85.700 H 207.800 C 207.745 85.700 207.700 85.745 207.700 85.800 V 88.700 C 207.700 88.800 207.800 88.700 207.700 88.700 H 201.900 C 201.800 88.700 201.900 88.800 201.900 88.700 V 85.800 C 201.900 85.745 201.855 85.700 201.800 85.700 H 195.800 C 195.745 85.700 195.700 85.745 195.700 85.800 V 88.700 C 195.700 88.800 195.800 88.700 195.700 88.700 H 189.900 C 189.800 88.700 189.900 88.800 189.900 88.700 V 85.800 C 189.900 85.745 189.855 85.700 189.800 85.700 H 183.800 C 183.745 85.700 183.700 85.745 183.700 85.800 V 88.700 C 183.700 88.800 183.800 88.700 183.700 88.700 H 177.900 C 177.800 88.700 177.900 88.800 177.900 88.700 V 85.800 C 177.900 85.745 177.855 85.700 177.800 85.700 H 170.800 C 170.745 85.700 170.700 85.745 170.700 85.800 V 88.800 V 94.700 C 170.700 94.800 170.800 94.700 170.700 94.700 H 167.800 C 167.745 94.700 167.700 94.745 167.700 94.800 V 100.800 C 167.700 100.855 167.745 100.900 167.800 100.900 H 170.700 C 170.800 100.900 170.700 100.800 170.700 100.900 V 106.700 C 170.700 106.800 170.800 106.700 170.700 106.700 H 167.800 C 167.745 106.700 167.700 106.745 167.700 106.800 V 112.800 C 167.700 112.855 167.745 112.900 167.800 112.900 H 170.700 C 170.800 112.900 170.700 112.800 170.700 112.900 V 118.700 C 170.700 118.800 170.800 118.700 170.700 118.700 H 167.800 C 167.745 118.700 167.700 118.745 167.700 118.800 V 124.800 C 167.700 124.855 167.745 124.900 167.800 124.900 H 170.700 C 170.800 124.900 170.700 124.800 170.700 124.900 V 130.700 C 170.700 130.800 170.800 130.700 170.700 130.700 H 167.800 C 167.745 130.700 167.700 130.745 167.700 130.800 V 136.800 C 167.700 136.855 167.745 136.900 167.800 136.900 H 170.700 C 170.800 136.900 170.700 136.800 170.700 136.900 V 142.700 C 170.700 142.800 170.800 142.700 170.700 142.700 H 167.800 C 167.745 142.700 167.700 142.745 167.700 142.800 V 148.800 C 167.700 148.855 167.745 148.900 167.800 148.900 H 170.700 C 170.800 148.900 170.700 148.800 170.700 148.900 V 154.700 C 170.700 154.800 170.800 154.700 170.700 154.700 H 167.800 C 167.745 154.700 167.700 154.745 167.700 154.800 V 160.800 C 167.700 160.855 167.745 160.900 167.800 160.900 H 170.700 C 170.800 160.900 170.700 160.800 170.700 160.900 V 166.700 C 170.700 166.800 170.800 166.700 170.700 166.700 H 167.800 C 167.745 166.700 167.700 166.745 167.700 166.800 V 172.800 C 167.700 172.855 167.745 172.900 167.800 172.900 H 170.700 C 170.800 172.900 170.700 172.800 170.700 172.900 V 178.700 C 170.700 178.800 170.800 178.700 170.700 178.700 H 167.800 C 167.745 178.700 167.700 178.745 167.700 178.800 V 184.800 C 167.700 184.855 167.745 184.900 167.800 184.900 H 170.700 C 170.800 184.900 170.700 184.800 170.700 184.900 V 190.700 C 170.700 190.800 170.800 190.700 170.700 190.700 H 167.800 C 167.745 190.700 167.700 190.745 167.700 190.800 V 196.800 C 167.700 196.855 167.745 196.900 167.800 196.900 H 170.700 C 170.800 196.900 170.700 196.800 170.700 196.900 V 202.700 C 170.700 202.800 170.800 202.700 170.700 202.700 H 167.800 C 167.745 202.700 167.700 202.745 167.700 202.800 V 208.800 C 167.700 208.855 167.745 208.900 167.800 208.900 H 170.700 C 170.800 208.900 170.700 208.800 170.700 208.900 V 214.700 C 170.700 214.800 170.800 214.700 170.700 214.700 H 167.800 C 167.745 214.700 167.700 214.745 167.700 214.800 V 220.800 C 167.700 220.855 167.745 220.900 167.800 220.900 H 170.700 C 170.800 220.900 170.700 220.800 170.700 220.900 V 226.700 C 170.700 226.800 170.800 226.700 170.700 226.700 H 167.800 C 167.745 226.700 167.700 226.745 167.700 226.800 V 232.800 C 167.700 232.855 167.745 232.900 167.800 232.900 H 170.700 C 170.800 232.900 170.700 232.800 170.700 232.900 V 238.800 V 241.800 C 170.700 241.855 170.745 241.900 170.800 241.900 Z"
       stroke="rgb(0,0,0)"
       stroke-width="0.20"
       id="path644" />
  </g>
  <g
     id="p-3"
     style="fill:none;stroke-linecap:round;stroke-linejoin:round;">
    <path
       d="M 13.100 241.900 H 19.100 C 19.155 241.900 19.200 241.855 19.200 241.800 V 238.900 C 19.200 238.800 19.100 238.900 19.200 238.900 H 25.000 C 25.100 238.900 25.000 238.800 25.000 238.900 V 241.800 C 25.000 241.855 25.045 241.900 25.100 241.900 H 31.100 C 31.155 241.900 31.200 241.855 31.200 241.800 V 238.900 C 31.200 238.800 31.100 238.900 31.200 238.900 H 37.000 C 37.100 238.900 37.000 238.800 37.000 238.900 V 241.800 C 37.000 241.855 37.045 241.900 37.100 241.900 H 43.100 C 43.155 241.900 43.200 241.855 43.200 241.800 V 238.900 C 43.200 238.800 43.100 238.900 43.200 238.900 H 49.000 C 49.100 238.900 49.000 238.800 49.000 238.900 V 241.800 C 49.000 241.855 49.045 241.900 49.100 241.900 H 55.100 C 55.155 241.900 55.200 241.855 55.200 241.800 V 238.900 C 55.200 238.800 55.100 238.900 55.200 238.900 H 61.000 C 61.100 238.900 61.000 238.800 61.000 238.900 V 241.800 C 61.000 241.855 61.045 241.900 61.100 241.900 H 67.100 C 67.155 241.900 67.200 241.855 67.200 241.800 V 238.900 C 67.200 238.800 67.100 238.900 67.200 238.900 H 73.000 C 73.100 238.900 73.000 238.800 73.000 238.900 V 241.800 C 73.000 241.855 73.045 241.900 73.100 241.900 H 79.100 C 79.155 241.900 79.200 241.855 79.200 241.800 V 238.900 C 79.200 238.800 79.100 238.900 79.200 238.900 H 85.000 C 85.100 238.900 85.000 238.800 85.000 238.900 V 241.800 C 85.000 241.855 85.045 241.900 85.100 241.900 H 91.100 C 91.155 241.900 91.200 241.855 91.200 241.800 V 238.900 C 91.200 238.800 91.100 238.900 91.200 238.900 H 97.000 C 97.100 238.900 97.000 238.800 97.000 238.900 V 241.800 C 97.000 241.855 97.045 241.900 97.100 241.900 H 103.100 C 103.155 241.900 103.200 241.855 103.200 241.800 V 238.900 C 103.200 238.800 103.100 238.900 103.200 238.900 H 109.000 C 109.100 238.900 109.000 238.800 109.000 238.900 V 241.800 C 109.000 241.855 109.045 241.900 109.100 241.900 H 115.100 C 115.155 241.900 115.200 241.855 115.200 241.800 V 238.900 C 115.200 238.800 115.100 238.900 115.200 238.900 H 121.000 C 121.100 238.900 121.000 238.800 121.000 238.900 V 241.800 C 121.000 241.855 121.045 241.900 121.100 241.900 H 127.100 C 127.155 241.900 127.200 241.855 127.200 241.800 V 238.900 C 127.200 238.800 127.100 238.900 127.200 238.900 H 133.000 C 133.100 238.900 133.000 238.800 133.000 238.900 V 241.800 C 133.000 241.855 133.045 241.900 133.100 241.900 H 139.100 C 139.155 241.900 139.200 241.855 139.200 241.800 V 238.900 C 139.200 238.800 139.100 238.900 139.200 238.900 H 145.000 C 145.100 238.900 145.000 238.800 145.000 238.900 V 241.800 C 145.000 241.855 145.045 241.900 145.100 241.900 H 151.100 C 151.155 241.900 151.200 241.855 151.200 241.800 V 238.900 C 151.200 238.800 151.100 238.900 151.200 238.900 H 157.000 C 157.100 238.900 157.000 238.800 157.000 238.900 V 241.800 C 157.000 241.855 157.045 241.900 157.100 241.900 H 163.100 H 166.100 C 166.155 241.900 166.200 241.855 166.200 241.800 V 238.800 V 232.800 C 166.200 232.745 166.155 232.700 166.100 232.700 H 163.200 C 163.100 232.700 163.200 232.800 163.200 232.700 V 226.900 C 163.200 226.800 163.100 226.900 163.200 226.900 H 166.100 C 166.155 226.900 166.200 226.855 166.200 226.800 V 220.800 C 166.200 220.745 166.155 220.700 166.100 220.700 H 163.200 C 163.100 220.700 163.200 220.800 163.200 220.700 V 214.900 C 163.200 214.800 163.100 214.900 163.200 214.900 H 166.100 C 166.155 214.900 166.200 214.855 166.200 214.800 V 208.800 C 166.200 208.745 166.155 208.700 166.100 208.700 H 163.200 C 163.100 208.700 163.200 208.800 163.200 208.700 V 202.900 C 163.200 202.800 163.100 202.900 163.200 202.900 H 166.100 C 166.155 202.900 166.200 202.855 166.200 202.800 V 196.800 C 166.200 196.745 166.155 196.700 166.100 196.700 H 163.200 C 163.100 196.700 163.200 196.800 163.200 196.700 V 190.900 C 163.200 190.800 163.100 190.900 163.200 190.900 H 166.100 C 166.155 190.900 166.200 190.855 166.200 190.800 V 184.800 C 166.200 184.745 166.155 184.700 166.100 184.700 H 163.200 C 163.100 184.700 163.200 184.800 163.200 184.700 V 178.900 C 163.200 178.800 163.100 178.900 163.200 178.900 H 166.100 C 166.155 178.900 166.200 178.855 166.200 178.800 V 172.800 C 166.200 172.745 166.155 172.700 166.100 172.700 H 163.200 C 163.100 172.700 163.200 172.800 163.200 172.700 V 166.900 C 163.200 166.800 163.100 166.900 163.200 166.900 H 166.100 C 166.155 166.900 166.200 166.855 166.200 166.800 V 160.800 C 166.200 160.745 166.155 160.700 166.100 160.700 H 163.200 C 163.100 160.700 163.200 160.800 163.200 160.700 V 154.900 C 163.200 154.800 163.100 154.900 163.200 154.900 H 166.100 C 166.155 154.900 166.200 154.855 166.200 154.800 V 148.800 C 166.200 148.745 166.155 148.700 166.100 148.700 H 163.200 C 163.100 148.700 163.200 148.800 163.200 148.700 V 142.900 C 163.200 142.800 163.100 142.900 163.200 142.900 H 166.100 C 166.155 142.900 166.200 142.855 166.200 142.800 V 136.800 C 166.200 136.745 166.155 136.700 166.100 136.700 H 163.200 C 163.100 136.700 163.200 136.800 163.200 136.700 V 130.900 C 163.200 130.800 163.100 130.900 163.200 130.900 H 166.100 C 166.155 130.900 166.200 130.855 166.200 130.800 V 124.800 C 166.200 124.745 166.155 124.700 166.100 124.700 H 163.200 C 163.100 124.700 163.200 124.800 163.200 124.700 V 118.900 C 163.200 118.800 163.100 118.900 163.200 118.900 H 166.100 C 166.155 118.900 166.200 118.855 166.200 118.800 V 112.800 C 166.200 112.745 166.155 112.700 166.100 112.700 H 163.200 C 163.100 112.700 163.200 112.800 163.200 112.700 V 106.900 C 163.200 106.800 163.100 106.900 163.200 106.900 H 166.100 C 166.155 106.900 166.200 106.855 166.200 106.800 V 100.800 C 166.200 100.745 166.155 100.700 166.100 100.700 H 163.200 C 163.100 100.700 163.200 100.800 163.200 100.700 V 94.900 C 163.200 94.800 163.100 94.900 163.200 94.900 H 166.100 C 166.155 94.900 166.200 94.855 166.200 94.800 V 88.800 V 85.800 C 166.200 85.745 166.155 85.700 166.100 85.700 H 163.100 H 157.100 C 157.045 85.700 157.000 85.745 157.000 85.800 V 88.700 C 157.000 88.800 157.100 88.700 157.000 88.700 H 151.200 C 151.100 88.700 151.200 88.800 151.200 88.700 V 85.800 C 151.200 85.745 151.155 85.700 151.100 85.700 H 145.100 C 145.045 85.700 145.000 85.745 145.000 85.800 V 88.700 C 145.000 88.800 145.100 88.700 145.000 88.700 H 139.200 C 139.100 88.700 139.200 88.800 139.200 88.700 V 85.800 C 139.200 85.745 139.155 85.700 139.100 85.700 H 133.100 C 133.045 85.700 133.000 85.745 133.000 85.800 V 88.700 C 133.000 88.800 133.100 88.700 133.000 88.700 H 127.200 C 127.100 88.700 127.200 88.800 127.200 88.700 V 85.800 C 127.200 85.745 127.155 85.700 127.100 85.700 H 121.100 C 121.045 85.700 121.000 85.745 121.000 85.800 V 88.700 C 121.000 88.800 121.100 88.700 121.000 88.700 H 115.200 C 115.100 88.700 115.200 88.800 115.200 88.700 V 85.800 C 115.200 85.745 115.155 85.700 115.100 85.700 H 109.100 C 109.045 85.700 109.000 85.745 109.000 85.800 V 88.700 C 109.000 88.800 109.100 88.700 109.000 88.700 H 103.200 C 103.100 88.700 103.200 88.800 103.200 88.700 V 85.800 C 103.200 85.745 103.155 85.700 103.100 85.700 H 97.100 C 97.045 85.700 97.000 85.745 97.000 85.800 V 88.700 C 97.000 88.800 97.100 88.700 97.000 88.700 H 91.200 C 91.100 88.700 91.200 88.800 91.200 88.700 V 85.800 C 91.200 85.745 91.155 85.700 91.100 85.700 H 85.100 C 85.045 85.700 85.000 85.745 85.000 85.800 V 88.700 C 85.000 88.800 85.100 88.700 85.000 88.700 H 79.200 C 79.100 88.700 79.200 88.800 79.200 88.700 V 85.800 C 79.200 85.745 79.155 85.700 79.100 85.700 H 73.100 C 73.045 85.700 73.000 85.745 73.000 85.800 V 88.700 C 73.000 88.800 73.100 88.700 73.000 88.700 H 67.200 C 67.100 88.700 67.200 88.800 67.200 88.700 V 85.800 C 67.200 85.745 67.155 85.700 67.100 85.700 H 61.100 C 61.045 85.700 61.000 85.745 61.000 85.800 V 88.700 C 61.000 88.800 61.100 88.700 61.000 88.700 H 55.200 C 55.100 88.700 55.200 88.800 55.200 88.700 V 85.800 C 55.200 85.745 55.155 85.700 55.100 85.700 H 49.100 C 49.045 85.700 49.000 85.745 49.000 85.800 V 88.700 C 49.000 88.800 49.100 88.700 49.000 88.700 H 43.200 C 43.100 88.700 43.200 88.800 43.200 88.700 V 85.800 C 43.200 85.745 43.155 85.700 43.100 85.700 H 37.100 C 37.045 85.700 37.000 85.745 37.000 85.800 V 88.700 C 37.000 88.800 37.100 88.700 37.000 88.700 H 31.200 C 31.100 88.700 31.200 88.800 31.200 88.700 V 85.800 C 31.200 85.745 31.155 85.700 31.100 85.700 H 25.100 C 25.045 85.700 25.000 85.745 25.000 85.800 V 88.700 C 25.000 88.800 25.100 88.700 25.000 88.700 H 19.200 C 19.100 88.700 19.200 88.800 19.200 88.700 V 85.800 C 19.200 85.745 19.155 85.700 19.100 85.700 H 13.100 H 10.100 C 10.045 85.700 10.000 85.745 10.000 85.800 V 88.800 V 94.800 C 10.000 94.855 10.045 94.900 10.100 94.900 H 13.000 C 13.100 94.900 13.000 94.800 13.000 94.900 V 100.700 C 13.000 100.800 13.100 100.700 13.000 100.700 H 10.100 C 10.045 100.700 10.000 100.745 10.000 100.800 V 106.800 C 10.000 106.855 10.045 106.900 10.100 106.900 H 13.000 C 13.100 106.900 13.000 106.800 13.000 106.900 V 112.700 C 13.000 112.800 13.100 112.700 13.000 112.700 H 10.100 C 10.045 112.700 10.000 112.745 10.000 112.800 V 118.800 C 10.000 118.855 10.045 118.900 10.100 118.900 H 13.000 C 13.100 118.900 13.000 118.800 13.000 118.900 V 124.700 C 13.000 124.800 13.100 124.700 13.000 124.700 H 10.100 C 10.045 124.700 10.000 124.745 10.000 124.800 V 130.800 C 10.000 130.855 10.045 130.900 10.100 130.900 H 13.000 C 13.100 130.900 13.000 130.800 13.000 130.900 V 136.700 C 13.000 136.800 13.100 136.700 13.000 136.700 H 10.100 C 10.045 136.700 10.000 136.745 10.000 136.800 V 142.800 C 10.000 142.855 10.045 142.900 10.100 142.900 H 13.000 C 13.100 142.900 13.000 142.800 13.000 142.900 V 148.700 C 13.000 148.800 13.100 148.700 13.000 148.700 H 10.100 C 10.045 148.700 10.000 148.745 10.000 148.800 V 154.800 C 10.000 154.855 10.045 154.900 10.100 154.900 H 13.000 C 13.100 154.900 13.000 154.800 13.000 154.900 V 160.700 C 13.000 160.800 13.100 160.700 13.000 160.700 H 10.100 C 10.045 160.700 10.000 160.745 10.000 160.800 V 166.800 C 10.000 166.855 10.045 166.900 10.100 166.900 H 13.000 C 13.100 166.900 13.000 166.800 13.000 166.900 V 172.700 C 13.000 172.800 13.100 172.700 13.000 172.700 H 10.100 C 10.045 172.700 10.000 172.745 10.000 172.800 V 178.800 C 10.000 178.855 10.045 178.900 10.100 178.900 H 13.000 C 13.100 178.900 13.000 178.800 13.000 178.900 V 184.700 C 13.000 184.800 13.100 184.700 13.000 184.700 H 10.100 C 10.045 184.700 10.000 184.745 10.000 184.800 V 190.800 C 10.000 190.855 10.045 190.900 10.100 190.900 H 13.000 C 13.100 190.900 13.000 190.800 13.000 190.900 V 196.700 C 13.000 196.800 13.100 196.700 13.000 196.700 H 10.100 C 10.045 196.700 10.000 196.745 10.000 196.800 V 202.800 C 10.000 202.855 10.045 202.900 10.100 202.900 H 13.000 C 13.100 202.900 13.000 202.800 13.000 202.900 V 208.700 C 13.000 208.800 13.100 208.700 13.000 208.700 H 10.100 C 10.045 208.700 10.000 208.745 10.000 208.800 V 214.800 C 10.000 214.855 10.045 214.900 10.100 214.900 H 13.000 C 13.100 214.900 13.000 214.800 13.000 214.900 V 220.700 C 13.000 220.800 13.100 220.700 13.000 220.700 H 10.100 C 10.045 220.700 10.000 220.745 10.000 220.800 V 226.800 C 10.000 226.855 10.045 226.900 10.100 226.900 H 13.000 C 13.100 226.900 13.000 226.800 13.000 226.900 V 232.700 C 13.000 232.800 13.100 232.700 13.000 232.700 H 10.100 C 10.045 232.700 10.000 232.745 10.000 232.800 V 238.800 V 241.800 C 10.000 241.855 10.045 241.900 10.100 241.900 H 13.100 Z"
       stroke="rgb(0,0,0)"
       stroke-width="0.20"
       id="path647" />
  </g>
  <g
     id="p-4"
     style="fill:none;stroke-linecap:round;stroke-linejoin:round;">
    <path
       d="M 13.100 81.200 H 19.000 C 19.100 81.200 19.000 81.100 19.000 81.200 V 84.100 C 19.000 84.155 19.045 84.200 19.100 84.200 H 25.100 C 25.155 84.200 25.200 84.155 25.200 84.100 V 81.200 C 25.200 81.100 25.100 81.200 25.200 81.200 H 31.000 C 31.100 81.200 31.000 81.100 31.000 81.200 V 84.100 C 31.000 84.155 31.045 84.200 31.100 84.200 H 37.100 C 37.155 84.200 37.200 84.155 37.200 84.100 V 81.200 C 37.200 81.100 37.100 81.200 37.200 81.200 H 43.000 C 43.100 81.200 43.000 81.100 43.000 81.200 V 84.100 C 43.000 84.155 43.045 84.200 43.100 84.200 H 49.100 C 49.155 84.200 49.200 84.155 49.200 84.100 V 81.200 C 49.200 81.100 49.100 81.200 49.200 81.200 H 55.000 C 55.100 81.200 55.000 81.100 55.000 81.200 V 84.100 C 55.000 84.155 55.045 84.200 55.100 84.200 H 61.100 C 61.155 84.200 61.200 84.155 61.200 84.100 V 81.200 C 61.200 81.100 61.100 81.200 61.200 81.200 H 67.000 C 67.100 81.200 67.000 81.100 67.000 81.200 V 84.100 C 67.000 84.155 67.045 84.200 67.100 84.200 H 73.100 C 73.155 84.200 73.200 84.155 73.200 84.100 V 81.200 C 73.200 81.100 73.100 81.200 73.200 81.200 H 79.000 C 79.100 81.200 79.000 81.100 79.000 81.200 V 84.100 C 79.000 84.155 79.045 84.200 79.100 84.200 H 85.100 C 85.155 84.200 85.200 84.155 85.200 84.100 V 81.200 C 85.200 81.100 85.100 81.200 85.200 81.200 H 91.000 C 91.100 81.200 91.000 81.100 91.000 81.200 V 84.100 C 91.000 84.155 91.045 84.200 91.100 84.200 H 97.100 C 97.155 84.200 97.200 84.155 97.200 84.100 V 81.200 C 97.200 81.100 97.100 81.200 97.200 81.200 H 103.000 C 103.100 81.200 103.000 81.100 103.000 81.200 V 84.100 C 103.000 84.155 103.045 84.200 103.100 84.200 H 109.100 C 109.155 84.200 109.200 84.155 109.200 84.100 V 81.200 C 109.200 81.100 109.100 81.200 109.200 81.200 H 115.000 C 115.100 81.200 115.000 81.100 115.000 81.200 V 84.100 C 115.000 84.155 115.045 84.200 115.100 84.200 H 121.100 C 121.155 84.200 121.200 84.155 121.200 84.100 V 81.200 C 121.200 81.100 121.100 81.200 121.200 81.200 H 127.000 C 127.100 81.200 127.000 81.100 127.000 81.200 V 84.100 C 127.000 84.155 127.045 84.200 127.100 84.200 H 133.100 C 133.155 84.200 133.200 84.155 133.200 84.100 V 81.200 C 133.200 81.100 133.100 81.200 133.200 81.200 H 139.000 C 139.100 81.200 139.000 81.100 139.000 81.200 V 84.100 C 139.000 84.155 139.045 84.200 139.100 84.200 H 145.100 C 145.155 84.200 145.200 84.155 145.200 84.100 V 81.200 C 145.200 81.100 145.100 81.200 145.200 81.200 H 151.000 C 151.100 81.200 151.000 81.100 151.000 81.200 V 84.100 C 151.000 84.155 151.045 84.200 151.100 84.200 H 157.100 C 157.155 84.200 157.200 84.155 157.200 84.100 V 81.200 C 157.200 81.100 157.100 81.200 157.200 81.200 H 163.100 C 163.155 81.200 163.200 81.155 163.200 81.100 V 74.200 C 163.200 74.100 163.100 74.200 163.200 74.200 H 166.100 C 166.155 74.200 166.200 74.155 166.200 74.100 V 68.100 C 166.200 68.045 166.155 68.000 166.100 68.000 H 163.200 C 163.100 68.000 163.200 68.100 163.200 68.000 V 62.200 C 163.200 62.100 163.100 62.200 163.200 62.200 H 166.100 C 166.155 62.200 166.200 62.155 166.200 62.100 V 56.100 C 166.200 56.045 166.155 56.000 166.100 56.000 H 163.200 C 163.100 56.000 163.200 56.100 163.200 56.000 V 50.200 C 163.200 50.100 163.100 50.200 163.200 50.200 H 166.100 C 166.155 50.200 166.200 50.155 166.200 50.100 V 44.100 C 166.200 44.045 166.155 44.000 166.100 44.000 H 163.200 C 163.100 44.000 163.200 44.100 163.200 44.000 V 38.200 C 163.200 38.100 163.100 38.200 163.200 38.200 H 166.100 C 166.155 38.200 166.200 38.155 166.200 38.100 V 32.100 C 166.200 32.045 166.155 32.000 166.100 32.000 H 163.200 C 163.100 32.000 163.200 32.100 163.200 32.000 V 26.200 C 163.200 26.100 163.100 26.200 163.200 26.200 H 166.100 C 166.155 26.200 166.200 26.155 166.200 26.100 V 20.100 C 166.200 20.045 166.155 20.000 166.100 20.000 H 163.200 C 163.100 20.000 163.200 20.100 163.200 20.000 V 13.100 C 163.200 13.045 163.155 13.000 163.100 13.000 H 157.200 C 157.100 13.000 157.200 13.100 157.200 13.000 V 10.100 C 157.200 10.045 157.155 10.000 157.100 10.000 H 151.100 C 151.045 10.000 151.000 10.045 151.000 10.100 V 13.000 C 151.000 13.100 151.100 13.000 151.000 13.000 H 145.200 C 145.100 13.000 145.200 13.100 145.200 13.000 V 10.100 C 145.200 10.045 145.155 10.000 145.100 10.000 H 139.100 C 139.045 10.000 139.000 10.045 139.000 10.100 V 13.000 C 139.000 13.100 139.100 13.000 139.000 13.000 H 133.200 C 133.100 13.000 133.200 13.100 133.200 13.000 V 10.100 C 133.200 10.045 133.155 10.000 133.100 10.000 H 127.100 C 127.045 10.000 127.000 10.045 127.000 10.100 V 13.000 C 127.000 13.100 127.100 13.000 127.000 13.000 H 121.200 C 121.100 13.000 121.200 13.100 121.200 13.000 V 10.100 C 121.200 10.045 121.155 10.000 121.100 10.000 H 115.100 C 115.045 10.000 115.000 10.045 115.000 10.100 V 13.000 C 115.000 13.100 115.100 13.000 115.000 13.000 H 109.200 C 109.100 13.000 109.200 13.100 109.200 13.000 V 10.100 C 109.200 10.045 109.155 10.000 109.100 10.000 H 103.100 C 103.045 10.000 103.000 10.045 103.000 10.100 V 13.000 C 103.000 13.100 103.100 13.000 103.000 13.000 H 97.200 C 97.100 13.000 97.200 13.100 97.200 13.000 V 10.100 C 97.200 10.045 97.155 10.000 97.100 10.000 H 91.100 C 91.045 10.000 91.000 10.045 91.000 10.100 V 13.000 C 91.000 13.100 91.100 13.000 91.000 13.000 H 85.200 C 85.100 13.000 85.200 13.100 85.200 13.000 V 10.100 C 85.200 10.045 85.155 10.000 85.100 10.000 H 79.100 C 79.045 10.000 79.000 10.045 79.000 10.100 V 13.000 C 79.000 13.100 79.100 13.000 79.000 13.000 H 73.200 C 73.100 13.000 73.200 13.100 73.200 13.000 V 10.100 C 73.200 10.045 73.155 10.000 73.100 10.000 H 67.100 C 67.045 10.000 67.000 10.045 67.000 10.100 V 13.000 C 67.000 13.100 67.100 13.000 67.000 13.000 H 61.200 C 61.100 13.000 61.200 13.100 61.200 13.000 V 10.100 C 61.200 10.045 61.155 10.000 61.100 10.000 H 55.100 C 55.045 10.000 55.000 10.045 55.000 10.100 V 13.000 C 55.000 13.100 55.100 13.000 55.000 13.000 H 49.200 C 49.100 13.000 49.200 13.100 49.200 13.000 V 10.100 C 49.200 10.045 49.155 10.000 49.100 10.000 H 43.100 C 43.045 10.000 43.000 10.045 43.000 10.100 V 13.000 C 43.000 13.100 43.100 13.000 43.000 13.000 H 37.200 C 37.100 13.000 37.200 13.100 37.200 13.000 V 10.100 C 37.200 10.045 37.155 10.000 37.100 10.000 H 31.100 C 31.045 10.000 31.000 10.045 31.000 10.100 V 13.000 C 31.000 13.100 31.100 13.000 31.000 13.000 H 25.200 C 25.100 13.000 25.200 13.100 25.200 13.000 V 10.100 C 25.200 10.045 25.155 10.000 25.100 10.000 H 19.100 C 19.045 10.000 19.000 10.045 19.000 10.100 V 13.000 C 19.000 13.100 19.100 13.000 19.000 13.000 H 13.100 C 13.045 13.000 13.000 13.045 13.000 13.100 V 20.000 C 13.000 20.100 13.100 20.000 13.000 20.000 H 10.100 C 10.045 20.000 10.000 20.045 10.000 20.100 V 26.100 C 10.000 26.155 10.045 26.200 10.100 26.200 H 13.000 C 13.100 26.200 13.000 26.100 13.000 26.200 V 32.000 C 13.000 32.100 13.100 32.000 13.000 32.000 H 10.100 C 10.045 32.000 10.000 32.045 10.000 32.100 V 38.100 C 10.000 38.155 10.045 38.200 10.100 38.200 H 13.000 C 13.100 38.200 13.000 38.100 13.000 38.200 V 44.000 C 13.000 44.100 13.100 44.000 13.000 44.000 H 10.100 C 10.045 44.000 10.000 44.045 10.000 44.100 V 50.100 C 10.000 50.155 10.045 50.200 10.100 50.200 H 13.000 C 13.100 50.200 13.000 50.100 13.000 50.200 V 56.000 C 13.000 56.100 13.100 56.000 13.000 56.000 H 10.100 C 10.045 56.000 10.000 56.045 10.000 56.100 V 62.100 C 10.000 62.155 10.045 62.200 10.100 62.200 H 13.000 C 13.100 62.200 13.000 62.100 13.000 62.200 V 68.000 C 13.000 68.100 13.100 68.000 13.000 68.000 H 10.100 C 10.045 68.000 10.000 68.045 10.000 68.100 V 74.100 C 10.000 74.155 10.045 74.200 10.100 74.200 H 13.000 C 13.100 74.200 13.000 74.100 13.000 74.200 V 81.100 C 13.000 81.155 13.045 81.200 13.100 81.200 Z"
       stroke="rgb(0,0,0)"
       stroke-width="0.20"
       id="path650" />
  </g>
  <g
     id="p-5"
     style="fill:none;stroke-linecap:round;stroke-linejoin:round;">
    <path
       d="M 170.800 81.200 H 176.700 C 176.800 81.200 176.700 81.100 176.700 81.200 V 84.100 C 176.700 84.155 176.745 84.200 176.800 84.200 H 182.800 C 182.855 84.200 182.900 84.155 182.900 84.100 V 81.200 C 182.900 81.100 182.800 81.200 182.900 81.200 H 188.700 C 188.800 81.200 188.700 81.100 188.700 81.200 V 84.100 C 188.700 84.155 188.745 84.200 188.800 84.200 H 194.800 C 194.855 84.200 194.900 84.155 194.900 84.100 V 81.200 C 194.900 81.100 194.800 81.200 194.900 81.200 H 200.700 C 200.800 81.200 200.700 81.100 200.700 81.200 V 84.100 C 200.700 84.155 200.745 84.200 200.800 84.200 H 206.800 C 206.855 84.200 206.900 84.155 206.900 84.100 V 81.200 C 206.900 81.100 206.800 81.200 206.900 81.200 H 212.700 C 212.800 81.200 212.700 81.100 212.700 81.200 V 84.100 C 212.700 84.155 212.745 84.200 212.800 84.200 H 218.800 C 218.855 84.200 218.900 84.155 218.900 84.100 V 81.200 C 218.900 81.100 218.800 81.200 218.900 81.200 H 224.700 C 224.800 81.200 224.700 81.100 224.700 81.200 V 84.100 C 224.700 84.155 224.745 84.200 224.800 84.200 H 230.800 C 230.855 84.200 230.900 84.155 230.900 84.100 V 81.200 C 230.900 81.100 230.800 81.200 230.900 81.200 H 236.700 C 236.800 81.200 236.700 81.100 236.700 81.200 V 84.100 C 236.700 84.155 236.745 84.200 236.800 84.200 H 242.800 C 242.855 84.200 242.900 84.155 242.900 84.100 V 81.200 C 242.900 81.100 242.800 81.200 242.900 81.200 H 248.700 C 248.800 81.200 248.700 81.100 248.700 81.200 V 84.100 C 248.700 84.155 248.745 84.200 248.800 84.200 H 254.800 C 254.855 84.200 254.900 84.155 254.900 84.100 V 81.200 C 254.900 81.100 254.800 81.200 254.900 81.200 H 260.700 C 260.800 81.200 260.700 81.100 260.700 81.200 V 84.100 C 260.700 84.155 260.745 84.200 260.800 84.200 H 266.800 C 266.855 84.200 266.900 84.155 266.900 84.100 V 81.200 C 266.900 81.100 266.800 81.200 266.900 81.200 H 272.700 C 272.800 81.200 272.700 81.100 272.700 81.200 V 84.100 C 272.700 84.155 272.745 84.200 272.800 84.200 H 278.800 C 278.855 84.200 278.900 84.155 278.900 84.100 V 81.200 C 278.900 81.100 278.800 81.200 278.900 81.200 H 284.700 C 284.800 81.200 284.700 81.100 284.700 81.200 V 84.100 C 284.700 84.155 284.745 84.200 284.800 84.200 H 290.800 C 290.855 84.200 290.900 84.155 290.900 84.100 V 81.200 C 290.900 81.100 290.800 81.200 290.900 81.200 H 296.700 C 296.800 81.200 296.700 81.100 296.700 81.200 V 84.100 C 296.700 84.155 296.745 84.200 296.800 84.200 H 302.800 C 302.855 84.200 302.900 84.155 302.900 84.100 V 81.200 C 302.900 81.100 302.800 81.200 302.900 81.200 H 308.700 C 308.800 81.200 308.700 81.100 308.700 81.200 V 84.100 C 308.700 84.155 308.745 84.200 308.800 84.200 H 314.800 C 314.855 84.200 314.900 84.155 314.900 84.100 V 81.200 C 314.900 81.100 314.800 81.200 314.900 81.200 H 320.800 C 320.855 81.200 320.900 81.155 320.900 81.100 V 74.200 C 320.900 74.100 320.800 74.200 320.900 74.200 H 323.800 C 323.855 74.200 323.900 74.155 323.900 74.100 V 68.100 C 323.900 68.045 323.855 68.000 323.800 68.000 H 320.900 C 320.800 68.000 320.900 68.100 320.900 68.000 V 62.200 C 320.900 62.100 320.800 62.200 320.900 62.200 H 323.800 C 323.855 62.200 323.900 62.155 323.900 62.100 V 56.100 C 323.900 56.045 323.855 56.000 323.800 56.000 H 320.900 C 320.800 56.000 320.900 56.100 320.900 56.000 V 50.200 C 320.900 50.100 320.800 50.200 320.900 50.200 H 323.800 C 323.855 50.200 323.900 50.155 323.900 50.100 V 44.100 C 323.900 44.045 323.855 44.000 323.800 44.000 H 320.900 C 320.800 44.000 320.900 44.100 320.900 44.000 V 38.200 C 320.900 38.100 320.800 38.200 320.900 38.200 H 323.800 C 323.855 38.200 323.900 38.155 323.900 38.100 V 32.100 C 323.900 32.045 323.855 32.000 323.800 32.000 H 320.900 C 320.800 32.000 320.900 32.100 320.900 32.000 V 26.200 C 320.900 26.100 320.800 26.200 320.900 26.200 H 323.800 C 323.855 26.200 323.900 26.155 323.900 26.100 V 20.100 C 323.900 20.045 323.855 20.000 323.800 20.000 H 320.900 C 320.800 20.000 320.900 20.100 320.900 20.000 V 13.100 C 320.900 13.045 320.855 13.000 320.800 13.000 H 314.900 C 314.800 13.000 314.900 13.100 314.900 13.000 V 10.100 C 314.900 10.045 314.855 10.000 314.800 10.000 H 308.800 C 308.745 10.000 308.700 10.045 308.700 10.100 V 13.000 C 308.700 13.100 308.800 13.000 308.700 13.000 H 302.900 C 302.800 13.000 302.900 13.100 302.900 13.000 V 10.100 C 302.900 10.045 302.855 10.000 302.800 10.000 H 296.800 C 296.745 10.000 296.700 10.045 296.700 10.100 V 13.000 C 296.700 13.100 296.800 13.000 296.700 13.000 H 290.900 C 290.800 13.000 290.900 13.100 290.900 13.000 V 10.100 C 290.900 10.045 290.855 10.000 290.800 10.000 H 284.800 C 284.745 10.000 284.700 10.045 284.700 10.100 V 13.000 C 284.700 13.100 284.800 13.000 284.700 13.000 H 278.900 C 278.800 13.000 278.900 13.100 278.900 13.000 V 10.100 C 278.900 10.045 278.855 10.000 278.800 10.000 H 272.800 C 272.745 10.000 272.700 10.045 272.700 10.100 V 13.000 C 272.700 13.100 272.800 13.000 272.700 13.000 H 266.900 C 266.800 13.000 266.900 13.100 266.900 13.000 V 10.100 C 266.900 10.045 266.855 10.000 266.800 10.000 H 260.800 C 260.745 10.000 260.700 10.045 260.700 10.100 V 13.000 C 260.700 13.100 260.800 13.000 260.700 13.000 H 254.900 C 254.800 13.000 254.900 13.100 254.900 13.000 V 10.100 C 254.900 10.045 254.855 10.000 254.800 10.000 H 248.800 C 248.745 10.000 248.700 10.045 248.700 10.100 V 13.000 C 248.700 13.100 248.800 13.000 248.700 13.000 H 242.900 C 242.800 13.000 242.900 13.100 242.900 13.000 V 10.100 C 242.900 10.045 242.855 10.000 242.800 10.000 H 236.800 C 236.745 10.000 236.700 10.045 236.700 10.100 V 13.000 C 236.700 13.100 236.800 13.000 236.700 13.000 H 230.900 C 230.800 13.000 230.900 13.100 230.900 13.000 V 10.100 C 230.900 10.045 230.855 10.000 230.800 10.000 H 224.800 C 224.745 10.000 224.700 10.045 224.700 10.100 V 13.000 C 224.700 13.100 224.800 13.000 224.700 13.000 H 218.900 C 218.800 13.000 218.900 13.100 218.900 13.000 V 10.100 C 218.900 10.045 218.855 10.000 218.800 10.000 H 212.800 C 212.745 10.000 212.700 10.045 212.700 10.100 V 13.000 C 212.700 13.100 212.800 13.000 212.700 13.000 H 206.900 C 206.800 13.000 206.900 13.100 206.900 13.000 V 10.100 C 206.900 10.045 206.855 10.000 206.800 10.000 H 200.800 C 200.745 10.000 200.700 10.045 200.700 10.100 V 13.000 C 200.700 13.100 200.800 13.000 200.700 13.000 H 194.900 C 194.800 13.000 194.900 13.100 194.900 13.000 V 10.100 C 194.900 10.045 194.855 10.000 194.800 10.000 H 188.800 C 188.745 10.000 188.700 10.045 188.700 10.100 V 13.000 C 188.700 13.100 188.800 13.000 188.700 13.000 H 182.900 C 182.800 13.000 182.900 13.100 182.900 13.000 V 10.100 C 182.900 10.045 182.855 10.000 182.800 10.000 H 176.800 C 176.745 10.000 176.700 10.045 176.700 10.100 V 13.000 C 176.700 13.100 176.800 13.000 176.700 13.000 H 170.800 C 170.745 13.000 170.700 13.045 170.700 13.100 V 20.000 C 170.700 20.100 170.800 20.000 170.700 20.000 H 167.800 C 167.745 20.000 167.700 20.045 167.700 20.100 V 26.100 C 167.700 26.155 167.745 26.200 167.800 26.200 H 170.700 C 170.800 26.200 170.700 26.100 170.700 26.200 V 32.000 C 170.700 32.100 170.800 32.000 170.700 32.000 H 167.800 C 167.745 32.000 167.700 32.045 167.700 32.100 V 38.100 C 167.700 38.155 167.745 38.200 167.800 38.200 H 170.700 C 170.800 38.200 170.700 38.100 170.700 38.200 V 44.000 C 170.700 44.100 170.800 44.000 170.700 44.000 H 167.800 C 167.745 44.000 167.700 44.045 167.700 44.100 V 50.100 C 167.700 50.155 167.745 50.200 167.800 50.200 H 170.700 C 170.800 50.200 170.700 50.100 170.700 50.200 V 56.000 C 170.700 56.100 170.800 56.000 170.700 56.000 H 167.800 C 167.745 56.000 167.700 56.045 167.700 56.100 V 62.100 C 167.700 62.155 167.745 62.200 167.800 62.200 H 170.700 C 170.800 62.200 170.700 62.100 170.700 62.200 V 68.000 C 170.700 68.100 170.800 68.000 170.700 68.000 H 167.800 C 167.745 68.000 167.700 68.045 167.700 68.100 V 74.100 C 167.700 74.155 167.745 74.200 167.800 74.200 H 170.700 C 170.800 74.200 170.700 74.100 170.700 74.200 V 81.100 C 170.700 81.155 170.745 81.200 170.800 81.200 Z"
       stroke="rgb(0,0,0)"
       stroke-width="0.20"
       id="path653" />
  </g>
  <rect
     style="fill:none;stroke:#000000;stroke-width:0.346385"
     id="rect134"
     width="124.65362"
     height="124.65362"
     x="25.773191"
     y="101.47319" />
  <rect
     style="fill:none;stroke:#000000;stroke-width:0.277108"
     id="rect134-1-3"
     width="99.722893"
     height="99.722893"
     x="38.238552"
     y="271.63855"
     ry="6.9206719" />
  <g
     id="g142"
     transform="matrix(1.0479589,0,0,1.0479589,7.2685273,15.357363)">
    <circle
       style="fill:none;stroke:#000000;stroke-width:0.264583"
       id="path87"
       cx="127.13229"
       cy="242.13229"
       r="2" />
    <circle
       style="fill:none;stroke:#000000;stroke-width:0.264583"
       id="path87-1"
       cx="27.132292"
       cy="242.13229"
       r="2" />
    <circle
       style="fill:none;stroke:#000000;stroke-width:0.264583"
       id="path87-1-4"
       cx="27.132292"
       cy="342.13229"
       r="2" />
    <circle
       style="fill:none;stroke:#000000;stroke-width:0.264583"
       id="path87-1-7"
       cx="127.13229"
       cy="342.13229"
       r="2" />
  </g>
  <circle
     style="fill:none;stroke:#000000;stroke-width:0.264583"
     id="path34"
     cx="28.218737"
     cy="47.099998"
     r="10.5" />
  <rect
     style="fill:none;stroke:#000000;stroke-width:0.268959"
     id="rect140"
     width="21.731041"
     height="3.095624"
     x="17.35322"
     y="45.552189" />
  <g
     aria-label="Ltrauchabsaugung"
     id="text6419"
     style="font-size:11.9944px;line-height:1.25;letter-spacing:0px;word-spacing:0px;fill:#ff0000;stroke-width:0.264583">
    <path
       d="m 43.124878,41.665036 h 1.183041 v 7.748335 h 4.257778 V 50.409 h -5.440819 z"
       style="-inkscape-font-specification:sans-serif"
       id="path30" />
    <path
       d="m 52.091395,44.60507 q -0.866783,0 -1.370454,0.67937 -0.503671,0.673514 -0.503671,1.850698 0,1.177185 0.497814,1.856555 0.503671,0.673514 1.376311,0.673514 0.860926,0 1.364597,-0.67937 0.503671,-0.679371 0.503671,-1.850699 0,-1.165471 -0.503671,-1.844842 -0.503671,-0.685226 -1.364597,-0.685226 z m 0,-0.913636 q 1.405593,0 2.207953,0.913636 0.80236,0.913635 0.80236,2.530068 0,1.610576 -0.80236,2.530069 -0.80236,0.913636 -2.207953,0.913636 -1.411451,0 -2.21381,-0.913636 -0.796504,-0.919493 -0.796504,-2.530069 0,-1.616433 0.796504,-2.530068 0.802359,-0.913636 2.21381,-0.913636 z m 0.550524,-2.37194 h 1.188898 v 1.183042 h -1.188898 z m -2.289947,0 h 1.188898 v 1.183042 h -1.188898 z"
       style="-inkscape-font-specification:sans-serif"
       id="path32" />
    <path
       d="m 57.953893,41.987151 v 1.862412 h 2.219666 v 0.837499 H 57.953893 V 48.2479 q 0,0.80236 0.216695,1.030769 0.222553,0.228409 0.896066,0.228409 h 1.106905 V 50.409 h -1.106905 q -1.247464,0 -1.721852,-0.462674 -0.474388,-0.468531 -0.474388,-1.698426 v -3.560838 h -0.790646 v -0.837499 h 0.790646 v -1.862412 z"
       style="-inkscape-font-specification:sans-serif"
       id="path35" />
    <path
       d="m 65.391825,44.856905 q -0.181556,-0.105419 -0.398252,-0.152273 -0.210839,-0.05271 -0.468531,-0.05271 -0.913636,0 -1.405594,0.597377 -0.486101,0.591521 -0.486101,1.704282 V 50.409 h -1.083479 v -6.559437 h 1.083479 v 1.019055 q 0.339685,-0.597377 0.884353,-0.884352 0.544667,-0.292832 1.3236,-0.292832 0.111277,0 0.245979,0.01757 0.134703,0.01171 0.298689,0.041 z"
       style="-inkscape-font-specification:sans-serif"
       id="path37" />
    <path
       d="m 69.503188,47.111712 q -1.306031,0 -1.809702,0.298688 -0.503671,0.298689 -0.503671,1.019056 0,0.573951 0.374825,0.913636 0.380682,0.333828 1.030769,0.333828 0.896066,0 1.434877,-0.632517 0.544668,-0.638374 0.544668,-1.692569 v -0.240122 z m 2.149387,-0.445105 V 50.409 h -1.077621 v -0.995629 q -0.368969,0.597378 -0.919493,0.884353 -0.550524,0.281119 -1.347027,0.281119 -1.007343,0 -1.60472,-0.562238 -0.591521,-0.568094 -0.591521,-1.516869 0,-1.106906 0.737937,-1.669143 0.743794,-0.562238 2.21381,-0.562238 h 1.511014 v -0.105419 q 0,-0.743793 -0.491958,-1.147902 -0.486101,-0.409964 -1.370454,-0.409964 -0.562238,0 -1.095192,0.134702 -0.532954,0.134703 -1.024912,0.404108 v -0.995628 q 0.591521,-0.228409 1.147902,-0.339686 0.55638,-0.117132 1.083478,-0.117132 1.423164,0 2.125961,0.737936 0.702796,0.737937 0.702796,2.237237 z"
       style="-inkscape-font-specification:sans-serif"
       id="path39" />
    <path
       d="m 73.760964,47.820365 v -3.970802 h 1.077622 v 3.929806 q 0,0.931206 0.363112,1.399737 0.363112,0.462674 1.089335,0.462674 0.87264,0 1.376311,-0.55638 0.509528,-0.556381 0.509528,-1.51687 v -3.718967 h 1.077621 V 50.409 h -1.077621 v -1.007342 q -0.392395,0.597378 -0.913636,0.89021 -0.515385,0.286975 -1.200612,0.286975 -1.130331,0 -1.715995,-0.702797 -0.585665,-0.702797 -0.585665,-2.055681 z m 2.711625,-4.128931 z"
       style="-inkscape-font-specification:sans-serif"
       id="path41" />
    <path
       d="m 86.194614,44.101398 v 1.007343 q -0.456818,-0.251836 -0.919492,-0.374825 -0.456818,-0.128846 -0.92535,-0.128846 -1.048338,0 -1.628146,0.667657 -0.579807,0.6618 -0.579807,1.862411 0,1.200612 0.579807,1.868269 0.579808,0.6618 1.628146,0.6618 0.468532,0 0.92535,-0.122989 0.462674,-0.128847 0.919492,-0.380682 v 0.995629 q -0.450961,0.210839 -0.937062,0.316258 -0.480245,0.10542 -1.024913,0.10542 -1.48173,0 -2.354369,-0.931206 -0.872639,-0.931206 -0.872639,-2.512499 0,-1.604719 0.878496,-2.524212 0.884352,-0.919492 2.418792,-0.919492 0.497815,0 0.972203,0.105419 0.474387,0.09956 0.919492,0.304545 z"
       style="-inkscape-font-specification:sans-serif"
       id="path43" />
    <path
       d="M 93.521272,46.449911 V 50.409 H 92.44365 v -3.923949 q 0,-0.931206 -0.363112,-1.39388 -0.363111,-0.462675 -1.089335,-0.462675 -0.872639,0 -1.37631,0.556381 -0.503671,0.556381 -0.503671,1.51687 V 50.409 h -1.083479 v -9.112932 h 1.083479 v 3.57255 q 0.386538,-0.59152 0.907779,-0.884352 0.527098,-0.292832 1.212324,-0.292832 1.130332,0 1.71014,0.702796 0.579807,0.696941 0.579807,2.055681 z"
       style="-inkscape-font-specification:sans-serif"
       id="path45" />
    <path
       d="m 98.651687,47.111712 q -1.306031,0 -1.809702,0.298688 -0.503671,0.298689 -0.503671,1.019056 0,0.573951 0.374825,0.913636 0.380681,0.333828 1.030769,0.333828 0.896066,0 1.434877,-0.632517 0.544667,-0.638374 0.544667,-1.692569 v -0.240122 z m 2.149383,-0.445105 V 50.409 h -1.077618 v -0.995629 q -0.368968,0.597378 -0.919492,0.884353 -0.550525,0.281119 -1.347028,0.281119 -1.007342,0 -1.604719,-0.562238 -0.591521,-0.568094 -0.591521,-1.516869 0,-1.106906 0.737937,-1.669143 0.743793,-0.562238 2.21381,-0.562238 h 1.511013 v -0.105419 q 0,-0.743793 -0.491958,-1.147902 -0.486101,-0.409964 -1.370454,-0.409964 -0.562237,0 -1.095191,0.134702 -0.532955,0.134703 -1.024913,0.404108 v -0.995628 q 0.591521,-0.228409 1.147902,-0.339686 0.556381,-0.117132 1.083479,-0.117132 1.423163,0 2.125963,0.737936 0.70279,0.737937 0.70279,2.237237 z"
       style="-inkscape-font-specification:sans-serif"
       id="path47" />
    <path
       d="m 107.72948,47.135138 q 0,-1.188898 -0.49196,-1.862411 -0.4861,-0.679371 -1.34117,-0.679371 -0.85507,0 -1.34702,0.679371 -0.4861,0.673513 -0.4861,1.862411 0,1.188898 0.4861,1.868269 0.49195,0.673513 1.34702,0.673513 0.85507,0 1.34117,-0.673513 0.49196,-0.679371 0.49196,-1.868269 z m -3.66625,-2.289946 q 0.33968,-0.585664 0.85506,-0.866783 0.52125,-0.286975 1.24161,-0.286975 1.19476,0 1.93855,0.948775 0.74965,0.948776 0.74965,2.494929 0,1.546153 -0.74965,2.494929 -0.74379,0.948776 -1.93855,0.948776 -0.72036,0 -1.24161,-0.281119 -0.51538,-0.286975 -0.85506,-0.872639 V 50.409 h -1.08348 v -9.112932 h 1.08348 z"
       style="-inkscape-font-specification:sans-serif"
       id="path49" />
    <path
       d="m 114.81602,44.042832 v 1.019055 q -0.45682,-0.234265 -0.94878,-0.351398 -0.49196,-0.117133 -1.01905,-0.117133 -0.80236,0 -1.20647,0.245979 -0.39825,0.245979 -0.39825,0.737937 0,0.374825 0.28697,0.591521 0.28698,0.210839 1.15376,0.404108 l 0.36897,0.08199 q 1.1479,0.245979 1.62814,0.69694 0.48611,0.445105 0.48611,1.247464 0,0.913636 -0.72623,1.446591 -0.72037,0.532954 -1.9854,0.532954 -0.5271,0 -1.10105,-0.10542 -0.56809,-0.09956 -1.20061,-0.304545 v -1.112762 q 0.59738,0.310402 1.17719,0.468532 0.5798,0.152272 1.1479,0.152272 0.76136,0 1.17133,-0.257692 0.40996,-0.263549 0.40996,-0.737937 0,-0.439248 -0.29869,-0.673513 -0.29283,-0.234266 -1.29432,-0.450962 l -0.37482,-0.08785 q -1.00149,-0.210839 -1.44659,-0.644231 -0.44511,-0.439248 -0.44511,-1.200611 0,-0.925349 0.65595,-1.42902 0.65594,-0.503671 1.86241,-0.503671 0.59738,0 1.12447,0.08785 0.5271,0.08785 0.97221,0.263549 z"
       style="-inkscape-font-specification:sans-serif"
       id="path51" />
    <path
       d="m 119.86444,47.111712 q -1.30603,0 -1.80971,0.298688 -0.50367,0.298689 -0.50367,1.019056 0,0.573951 0.37483,0.913636 0.38068,0.333828 1.03077,0.333828 0.89606,0 1.43487,-0.632517 0.54467,-0.638374 0.54467,-1.692569 v -0.240122 z m 2.14938,-0.445105 V 50.409 h -1.07762 v -0.995629 q -0.36897,0.597378 -0.91949,0.884353 -0.55053,0.281119 -1.34703,0.281119 -1.00734,0 -1.60472,-0.562238 -0.59152,-0.568094 -0.59152,-1.516869 0,-1.106906 0.73794,-1.669143 0.74379,-0.562238 2.21381,-0.562238 h 1.51101 v -0.105419 q 0,-0.743793 -0.49196,-1.147902 -0.4861,-0.409964 -1.37045,-0.409964 -0.56224,0 -1.09519,0.134702 -0.53296,0.134703 -1.02491,0.404108 v -0.995628 q 0.59152,-0.228409 1.1479,-0.339686 0.55638,-0.117132 1.08348,-0.117132 1.42316,0 2.12596,0.737936 0.70279,0.737937 0.70279,2.237237 z"
       style="-inkscape-font-specification:sans-serif"
       id="path53" />
    <path
       d="m 124.12222,47.820365 v -3.970802 h 1.07762 v 3.929806 q 0,0.931206 0.36311,1.399737 0.36312,0.462674 1.08934,0.462674 0.87264,0 1.37631,-0.55638 0.50953,-0.556381 0.50953,-1.51687 v -3.718967 h 1.07762 V 50.409 h -1.07762 v -1.007342 q -0.3924,0.597378 -0.91364,0.89021 -0.51538,0.286975 -1.20061,0.286975 -1.13033,0 -1.716,-0.702797 -0.58566,-0.702797 -0.58566,-2.055681 z m 2.71162,-4.128931 z"
       style="-inkscape-font-specification:sans-serif"
       id="path55" />
    <path
       d="m 136.15175,47.053145 q 0,-1.171328 -0.4861,-1.815558 -0.48024,-0.644231 -1.35288,-0.644231 -0.86678,0 -1.35289,0.644231 -0.48024,0.64423 -0.48024,1.815558 0,1.165472 0.48024,1.809702 0.48611,0.644231 1.35289,0.644231 0.87264,0 1.35288,-0.644231 0.4861,-0.64423 0.4861,-1.809702 z m 1.07763,2.541782 q 0,1.675 -0.7438,2.489073 -0.74379,0.819929 -2.27823,0.819929 -0.56809,0 -1.07177,-0.08785 -0.50367,-0.08199 -0.97805,-0.257692 v -1.048339 q 0.47438,0.257692 0.93706,0.380681 0.46267,0.12299 0.94292,0.12299 1.06005,0 1.58715,-0.556381 0.52709,-0.550524 0.52709,-1.669143 v -0.532954 q -0.33382,0.579808 -0.85507,0.866783 -0.52124,0.286975 -1.24746,0.286975 -1.20647,0 -1.9444,-0.919492 -0.73794,-0.919493 -0.73794,-2.436363 0,-1.522726 0.73794,-2.442219 0.73793,-0.919492 1.9444,-0.919492 0.72622,0 1.24746,0.286975 0.52125,0.286975 0.85507,0.866783 v -0.995629 h 1.07763 z"
       style="-inkscape-font-specification:sans-serif"
       id="path57" />
    <path
       d="m 139.33777,47.820365 v -3.970802 h 1.07762 v 3.929806 q 0,0.931206 0.36311,1.399737 0.36311,0.462674 1.08933,0.462674 0.87264,0 1.37632,-0.55638 0.50952,-0.556381 0.50952,-1.51687 v -3.718967 h 1.07762 V 50.409 h -1.07762 v -1.007342 q -0.39239,0.597378 -0.91363,0.89021 -0.51539,0.286975 -1.20061,0.286975 -1.13034,0 -1.716,-0.702797 -0.58566,-0.702797 -0.58566,-2.055681 z m 2.71162,-4.128931 z"
       style="-inkscape-font-specification:sans-serif"
       id="path59" />
    <path
       d="M 152.5035,46.449911 V 50.409 h -1.07763 v -3.923949 q 0,-0.931206 -0.36311,-1.39388 -0.36311,-0.462675 -1.08933,-0.462675 -0.87264,0 -1.37631,0.556381 -0.50367,0.556381 -0.50367,1.51687 V 50.409 h -1.08348 v -6.559437 h 1.08348 v 1.019055 q 0.38653,-0.59152 0.90777,-0.884352 0.5271,-0.292832 1.21233,-0.292832 1.13033,0 1.71014,0.702796 0.57981,0.696941 0.57981,2.055681 z"
       style="-inkscape-font-specification:sans-serif"
       id="path61" />
    <path
       d="m 158.96923,47.053145 q 0,-1.171328 -0.4861,-1.815558 -0.48025,-0.644231 -1.35289,-0.644231 -0.86678,0 -1.35288,0.644231 -0.48025,0.64423 -0.48025,1.815558 0,1.165472 0.48025,1.809702 0.4861,0.644231 1.35288,0.644231 0.87264,0 1.35289,-0.644231 0.4861,-0.64423 0.4861,-1.809702 z m 1.07762,2.541782 q 0,1.675 -0.74379,2.489073 -0.7438,0.819929 -2.27824,0.819929 -0.56809,0 -1.07176,-0.08785 -0.50367,-0.08199 -0.97806,-0.257692 v -1.048339 q 0.47439,0.257692 0.93706,0.380681 0.46268,0.12299 0.94292,0.12299 1.06005,0 1.58715,-0.556381 0.5271,-0.550524 0.5271,-1.669143 v -0.532954 q -0.33383,0.579808 -0.85507,0.866783 -0.52124,0.286975 -1.24747,0.286975 -1.20646,0 -1.9444,-0.919492 -0.73794,-0.919493 -0.73794,-2.436363 0,-1.522726 0.73794,-2.442219 0.73794,-0.919492 1.9444,-0.919492 0.72623,0 1.24747,0.286975 0.52124,0.286975 0.85507,0.866783 v -0.995629 h 1.07762 z"
       style="-inkscape-font-specification:sans-serif"
       id="path63" />
  </g>
</svg>
